<svg id="Capa_1" enable-background="new 0 0 512 512" height="24" viewBox="0 0 512 512" width="24" xmlns="http://www.w3.org/2000/svg" fill-rule="evenodd" style="fill:#fff;" clip-rule="evenodd" ><g><path d="m313.985 269.569h21.537v155.943c0 8.284 6.716 15 15 15s15-6.716 15-15v-170.943c0-8.284-6.716-15-15-15h-36.537c-8.284 0-15 6.716-15 15s6.716 15 15 15z"/><path d="m205.218 412.522c-15.506 0-28.741-12.594-28.741-28.741 0-8.284-6.716-15-15-15s-15 6.716-15 15c0 32.791 26.898 58.741 58.741 58.741 32.39 0 58.741-26.351 58.741-58.741 0-17.36-7.575-32.978-19.586-43.741 12.011-10.763 19.586-26.382 19.586-43.741 0-32.39-26.351-58.741-58.741-58.741-28.007 0-52.248 19.922-57.639 47.372-1.597 8.129 3.699 16.013 11.828 17.61 8.128 1.596 16.013-3.699 17.61-11.828 2.635-13.416 14.496-23.154 28.202-23.154 15.848 0 28.741 12.893 28.741 28.741s-12.893 28.741-28.741 28.741c-8.284 0-15 6.716-15 15s6.716 15 15 15c15.848 0 28.741 12.893 28.741 28.741-.001 15.848-12.894 28.741-28.742 28.741z"/><path d="m497 58h-51v-43c0-8.284-6.716-15-15-15h-84.667c-8.284 0-15 6.716-15 15v43h-150.666v-43c0-8.284-6.716-15-15-15h-84.667c-8.284 0-15 6.716-15 15v43h-51c-8.284 0-15 6.716-15 15v424c0 8.284 6.716 15 15 15h482c8.284 0 15-6.716 15-15 0-9.304 0-419.081 0-424 0-8.284-6.716-15-15-15zm-135.667-28h54.667v28h-54.667zm-265.333 0h54.667v28h-54.667zm386 452h-452v-283.92h452zm0-313.92h-452v-80.08h452z"/></g></svg>